<mxfile host="Electron" modified="2023-07-13T14:49:03.400Z" agent="Mozilla/5.0 (Windows NT 10.0; Win64; x64) AppleWebKit/537.36 (KHTML, like Gecko) draw.io/21.6.1 Chrome/112.0.5615.204 Electron/24.6.1 Safari/537.36" version="21.6.1" etag="pPQP90iFY6qhUrB9MykR" type="device">
  <diagram id="EvGvhxfpEQxphEuWEam0" name="Страница 1">
    <mxGraphModel dx="1036" dy="606" grid="1" gridSize="10" guides="1" tooltips="1" connect="1" arrows="1" fold="1" page="1" pageScale="1" pageWidth="827" pageHeight="1169" math="0" shadow="0">
      <root>
        <mxCell id="0" />
        <mxCell id="1" parent="0" />
        <mxCell id="YqGaC_8BOzr6KxE_VZlu-1" value="Задание 6. Нарисовать диаграмму, в которой есть класс родительский класс, домашние&lt;br&gt;животные и вьючные животные, в составы которых в случае домашних&lt;br&gt;животных войдут классы: собаки, кошки, хомяки, а в класс вьючные животные&lt;br&gt;войдут: Лошади, верблюды и ослы)." style="text;whiteSpace=wrap;html=1;" vertex="1" parent="1">
          <mxGeometry x="50" y="20" width="480" height="80" as="geometry" />
        </mxCell>
        <mxCell id="YqGaC_8BOzr6KxE_VZlu-2" value="Animals" style="rounded=1;whiteSpace=wrap;html=1;" vertex="1" parent="1">
          <mxGeometry x="310" y="120" width="180" height="80" as="geometry" />
        </mxCell>
        <mxCell id="YqGaC_8BOzr6KxE_VZlu-18" style="edgeStyle=orthogonalEdgeStyle;rounded=0;orthogonalLoop=1;jettySize=auto;html=1;entryX=0;entryY=0.5;entryDx=0;entryDy=0;" edge="1" parent="1" source="YqGaC_8BOzr6KxE_VZlu-4" target="YqGaC_8BOzr6KxE_VZlu-2">
          <mxGeometry relative="1" as="geometry">
            <Array as="points">
              <mxPoint x="160" y="160" />
            </Array>
          </mxGeometry>
        </mxCell>
        <mxCell id="YqGaC_8BOzr6KxE_VZlu-4" value="home_animals" style="rounded=1;whiteSpace=wrap;html=1;" vertex="1" parent="1">
          <mxGeometry x="90" y="200" width="150" height="70" as="geometry" />
        </mxCell>
        <mxCell id="YqGaC_8BOzr6KxE_VZlu-19" style="edgeStyle=orthogonalEdgeStyle;rounded=0;orthogonalLoop=1;jettySize=auto;html=1;entryX=1;entryY=0.5;entryDx=0;entryDy=0;" edge="1" parent="1" source="YqGaC_8BOzr6KxE_VZlu-5" target="YqGaC_8BOzr6KxE_VZlu-2">
          <mxGeometry relative="1" as="geometry">
            <Array as="points">
              <mxPoint x="640" y="160" />
            </Array>
          </mxGeometry>
        </mxCell>
        <mxCell id="YqGaC_8BOzr6KxE_VZlu-5" value="pack_animals" style="rounded=1;whiteSpace=wrap;html=1;" vertex="1" parent="1">
          <mxGeometry x="570" y="200" width="150" height="70" as="geometry" />
        </mxCell>
        <mxCell id="YqGaC_8BOzr6KxE_VZlu-12" style="edgeStyle=orthogonalEdgeStyle;rounded=0;orthogonalLoop=1;jettySize=auto;html=1;entryX=0;entryY=0.5;entryDx=0;entryDy=0;" edge="1" parent="1" source="YqGaC_8BOzr6KxE_VZlu-6" target="YqGaC_8BOzr6KxE_VZlu-4">
          <mxGeometry relative="1" as="geometry" />
        </mxCell>
        <mxCell id="YqGaC_8BOzr6KxE_VZlu-6" value="dog" style="rounded=1;whiteSpace=wrap;html=1;" vertex="1" parent="1">
          <mxGeometry x="30" y="320" width="80" height="40" as="geometry" />
        </mxCell>
        <mxCell id="YqGaC_8BOzr6KxE_VZlu-13" style="edgeStyle=orthogonalEdgeStyle;rounded=0;orthogonalLoop=1;jettySize=auto;html=1;" edge="1" parent="1" source="YqGaC_8BOzr6KxE_VZlu-22">
          <mxGeometry relative="1" as="geometry">
            <mxPoint x="170" y="270" as="targetPoint" />
            <Array as="points">
              <mxPoint x="170" y="270" />
            </Array>
          </mxGeometry>
        </mxCell>
        <mxCell id="YqGaC_8BOzr6KxE_VZlu-7" value="cat" style="rounded=1;whiteSpace=wrap;html=1;" vertex="1" parent="1">
          <mxGeometry x="130" y="320" width="80" height="40" as="geometry" />
        </mxCell>
        <mxCell id="YqGaC_8BOzr6KxE_VZlu-14" style="edgeStyle=orthogonalEdgeStyle;rounded=0;orthogonalLoop=1;jettySize=auto;html=1;entryX=1;entryY=0.5;entryDx=0;entryDy=0;" edge="1" parent="1" source="YqGaC_8BOzr6KxE_VZlu-8" target="YqGaC_8BOzr6KxE_VZlu-4">
          <mxGeometry relative="1" as="geometry" />
        </mxCell>
        <mxCell id="YqGaC_8BOzr6KxE_VZlu-8" value="hamster" style="rounded=1;whiteSpace=wrap;html=1;" vertex="1" parent="1">
          <mxGeometry x="230" y="320" width="80" height="40" as="geometry" />
        </mxCell>
        <mxCell id="YqGaC_8BOzr6KxE_VZlu-17" style="edgeStyle=orthogonalEdgeStyle;rounded=0;orthogonalLoop=1;jettySize=auto;html=1;entryX=0;entryY=0.5;entryDx=0;entryDy=0;" edge="1" parent="1" source="YqGaC_8BOzr6KxE_VZlu-9" target="YqGaC_8BOzr6KxE_VZlu-5">
          <mxGeometry relative="1" as="geometry" />
        </mxCell>
        <mxCell id="YqGaC_8BOzr6KxE_VZlu-9" value="horse" style="rounded=1;whiteSpace=wrap;html=1;" vertex="1" parent="1">
          <mxGeometry x="500" y="320" width="80" height="40" as="geometry" />
        </mxCell>
        <mxCell id="YqGaC_8BOzr6KxE_VZlu-15" style="edgeStyle=orthogonalEdgeStyle;rounded=0;orthogonalLoop=1;jettySize=auto;html=1;entryX=0.456;entryY=1.014;entryDx=0;entryDy=0;entryPerimeter=0;" edge="1" parent="1" source="YqGaC_8BOzr6KxE_VZlu-10" target="YqGaC_8BOzr6KxE_VZlu-5">
          <mxGeometry relative="1" as="geometry" />
        </mxCell>
        <mxCell id="YqGaC_8BOzr6KxE_VZlu-10" value="camel" style="rounded=1;whiteSpace=wrap;html=1;" vertex="1" parent="1">
          <mxGeometry x="600" y="320" width="80" height="40" as="geometry" />
        </mxCell>
        <mxCell id="YqGaC_8BOzr6KxE_VZlu-16" style="edgeStyle=orthogonalEdgeStyle;rounded=0;orthogonalLoop=1;jettySize=auto;html=1;entryX=1;entryY=0.5;entryDx=0;entryDy=0;" edge="1" parent="1" source="YqGaC_8BOzr6KxE_VZlu-11" target="YqGaC_8BOzr6KxE_VZlu-5">
          <mxGeometry relative="1" as="geometry" />
        </mxCell>
        <mxCell id="YqGaC_8BOzr6KxE_VZlu-11" value="donkey" style="rounded=1;whiteSpace=wrap;html=1;" vertex="1" parent="1">
          <mxGeometry x="700" y="320" width="80" height="40" as="geometry" />
        </mxCell>
        <mxCell id="YqGaC_8BOzr6KxE_VZlu-20" value="extends" style="text;html=1;align=center;verticalAlign=middle;resizable=0;points=[];autosize=1;strokeColor=none;fillColor=none;" vertex="1" parent="1">
          <mxGeometry x="145" y="128" width="70" height="30" as="geometry" />
        </mxCell>
        <mxCell id="YqGaC_8BOzr6KxE_VZlu-21" value="extends" style="text;html=1;align=center;verticalAlign=middle;resizable=0;points=[];autosize=1;strokeColor=none;fillColor=none;" vertex="1" parent="1">
          <mxGeometry x="580" y="128" width="70" height="30" as="geometry" />
        </mxCell>
        <mxCell id="YqGaC_8BOzr6KxE_VZlu-23" value="extends" style="text;html=1;align=center;verticalAlign=middle;resizable=0;points=[];autosize=1;strokeColor=none;fillColor=none;" vertex="1" parent="1">
          <mxGeometry x="270" y="250" width="70" height="30" as="geometry" />
        </mxCell>
        <mxCell id="YqGaC_8BOzr6KxE_VZlu-24" value="extends" style="text;html=1;align=center;verticalAlign=middle;resizable=0;points=[];autosize=1;strokeColor=none;fillColor=none;" vertex="1" parent="1">
          <mxGeometry y="250" width="70" height="30" as="geometry" />
        </mxCell>
        <mxCell id="YqGaC_8BOzr6KxE_VZlu-25" value="" style="edgeStyle=orthogonalEdgeStyle;rounded=0;orthogonalLoop=1;jettySize=auto;html=1;" edge="1" parent="1" source="YqGaC_8BOzr6KxE_VZlu-7" target="YqGaC_8BOzr6KxE_VZlu-22">
          <mxGeometry relative="1" as="geometry">
            <mxPoint x="170" y="270" as="targetPoint" />
            <mxPoint x="170" y="320" as="sourcePoint" />
            <Array as="points" />
          </mxGeometry>
        </mxCell>
        <mxCell id="YqGaC_8BOzr6KxE_VZlu-22" value="extends" style="text;html=1;align=center;verticalAlign=middle;resizable=0;points=[];autosize=1;strokeColor=none;fillColor=none;" vertex="1" parent="1">
          <mxGeometry x="135" y="280" width="70" height="30" as="geometry" />
        </mxCell>
        <mxCell id="YqGaC_8BOzr6KxE_VZlu-26" value="extends" style="text;html=1;align=center;verticalAlign=middle;resizable=0;points=[];autosize=1;strokeColor=none;fillColor=none;" vertex="1" parent="1">
          <mxGeometry x="600" y="290" width="70" height="30" as="geometry" />
        </mxCell>
        <mxCell id="YqGaC_8BOzr6KxE_VZlu-27" value="extends" style="text;html=1;align=center;verticalAlign=middle;resizable=0;points=[];autosize=1;strokeColor=none;fillColor=none;" vertex="1" parent="1">
          <mxGeometry x="470" y="250" width="70" height="30" as="geometry" />
        </mxCell>
        <mxCell id="YqGaC_8BOzr6KxE_VZlu-28" value="extends" style="text;html=1;align=center;verticalAlign=middle;resizable=0;points=[];autosize=1;strokeColor=none;fillColor=none;" vertex="1" parent="1">
          <mxGeometry x="740" y="250" width="70" height="30" as="geometry" />
        </mxCell>
      </root>
    </mxGraphModel>
  </diagram>
</mxfile>
